<mxfile host="65bd71144e">
    <diagram id="W1s75LspLi0Xh_nazY5x" name="Страница — 1">
        <mxGraphModel dx="1616" dy="605" grid="1" gridSize="10" guides="1" tooltips="1" connect="1" arrows="1" fold="1" page="0" pageScale="1" pageWidth="827" pageHeight="1169" background="none" math="0" shadow="0">
            <root>
                <mxCell id="0"/>
                <mxCell id="1" parent="0"/>
                <mxCell id="3" value="Результаты матчей" style="rounded=0;whiteSpace=wrap;html=1;" parent="1" vertex="1">
                    <mxGeometry x="374.5" y="375" width="120" height="60" as="geometry"/>
                </mxCell>
                <mxCell id="4" value="Ставка" style="rounded=0;whiteSpace=wrap;html=1;" parent="1" vertex="1">
                    <mxGeometry x="719" y="375" width="120" height="60" as="geometry"/>
                    <mxGeometry x="425.5" y="285" width="120" height="60" as="geometry"/>
                </mxCell>
                <mxCell id="4" value="Ставка" style="rounded=0;whiteSpace=wrap;html=1;" parent="1" vertex="1">
                    <mxGeometry x="770" y="285" width="120" height="60" as="geometry"/>
                </mxCell>
                <mxCell id="6" value="Команда" style="rounded=0;whiteSpace=wrap;html=1;" parent="1" vertex="1">
                    <mxGeometry x="138" y="195" width="120" height="60" as="geometry"/>
                </mxCell>
                <mxCell id="15" value="" style="fontSize=12;html=1;endArrow=ERoneToMany;exitX=0.5;exitY=0;exitDx=0;exitDy=0;entryX=1;entryY=0.5;entryDx=0;entryDy=0;rounded=0;" parent="1" source="3" target="6" edge="1">
                    <mxGeometry width="100" height="100" relative="1" as="geometry">
                        <mxPoint x="-41" y="223" as="sourcePoint"/>
                        <mxPoint x="138" y="223" as="targetPoint"/>
                        <Array as="points">
                            <mxPoint x="435" y="225"/>
                        </Array>
                    </mxGeometry>
                </mxCell>
                <mxCell id="16" value="Имеет" style="shape=rhombus;perimeter=rhombusPerimeter;whiteSpace=wrap;html=1;align=center;" parent="1" vertex="1">
                    <mxGeometry x="374.5" y="285" width="120" height="60" as="geometry"/>
                </mxCell>
                <mxCell id="35" value="Матч" style="ellipse;whiteSpace=wrap;html=1;align=center;" parent="1" vertex="1">
                    <mxGeometry x="842" y="576" width="100" height="40" as="geometry"/>
                </mxCell>
                <mxCell id="36" style="edgeStyle=orthogonalEdgeStyle;html=1;exitX=1;exitY=0.5;exitDx=0;exitDy=0;entryX=0.5;entryY=1;entryDx=0;entryDy=0;rounded=0;endArrow=none;endFill=0;" parent="1" source="37" target="4" edge="1">
                    <mxGeometry relative="1" as="geometry">
                        <mxPoint x="784" y="433" as="targetPoint"/>
                    </mxGeometry>
                </mxCell>
                <mxCell id="37" value="Коэффициент" style="ellipse;whiteSpace=wrap;html=1;align=center;" parent="1" vertex="1">
                    <mxGeometry x="624" y="576" width="100" height="40" as="geometry"/>
                </mxCell>
                <mxCell id="38" value="ID" style="ellipse;whiteSpace=wrap;html=1;align=center;" parent="1" vertex="1">
                    <mxGeometry x="624" y="504" width="100" height="40" as="geometry"/>
                </mxCell>
                <mxCell id="39" style="edgeStyle=orthogonalEdgeStyle;html=1;exitX=1;exitY=0.5;exitDx=0;exitDy=0;entryX=0.5;entryY=1;entryDx=0;entryDy=0;rounded=0;endArrow=none;endFill=0;" parent="1" source="38" target="4" edge="1">
                    <mxGeometry relative="1" as="geometry">
                        <mxPoint x="758" y="567" as="sourcePoint"/>
                        <mxPoint x="784" y="433" as="targetPoint"/>
                    </mxGeometry>
                </mxCell>
                <mxCell id="40" style="edgeStyle=orthogonalEdgeStyle;html=1;exitX=0;exitY=0.5;exitDx=0;exitDy=0;entryX=0.5;entryY=1;entryDx=0;entryDy=0;rounded=0;endArrow=none;endFill=0;" parent="1" source="35" target="4" edge="1">
                    <mxGeometry relative="1" as="geometry">
                        <mxPoint x="768" y="577" as="sourcePoint"/>
                        <mxPoint x="784" y="433" as="targetPoint"/>
                    </mxGeometry>
                </mxCell>
                <mxCell id="41" style="edgeStyle=orthogonalEdgeStyle;html=1;exitX=0;exitY=0.5;exitDx=0;exitDy=0;entryX=0.5;entryY=1;entryDx=0;entryDy=0;rounded=0;endArrow=none;endFill=0;" parent="1" source="56" target="4" edge="1">
                    <mxGeometry relative="1" as="geometry">
                        <mxPoint x="842" y="485" as="sourcePoint"/>
                        <mxPoint x="784" y="433" as="targetPoint"/>
                    </mxGeometry>
                </mxCell>
                <mxCell id="42" value="&lt;font style=&quot;color: rgb(0, 0, 0);&quot;&gt;Домашняя&lt;/font&gt;&lt;div&gt;&lt;font style=&quot;color: rgb(0, 0, 0);&quot;&gt;команда&lt;/font&gt;&lt;/div&gt;" style="ellipse;whiteSpace=wrap;html=1;align=center;" parent="1" vertex="1">
                    <mxGeometry x="494.5" y="504" width="100" height="40" as="geometry"/>
                </mxCell>
                <mxCell id="43" value="Результаты" style="ellipse;whiteSpace=wrap;html=1;align=center;" parent="1" vertex="1">
                    <mxGeometry x="494.5" y="576" width="100" height="40" as="geometry"/>
                </mxCell>
                <mxCell id="44" style="edgeStyle=orthogonalEdgeStyle;html=1;exitX=1;exitY=0.5;exitDx=0;exitDy=0;entryX=0.5;entryY=1;entryDx=0;entryDy=0;rounded=0;endArrow=none;endFill=0;" parent="1" source="45" target="3" edge="1">
                    <mxGeometry relative="1" as="geometry">
                        <mxPoint x="442.5" y="472" as="targetPoint"/>
                    </mxGeometry>
                </mxCell>
                <mxCell id="45" value="&lt;font style=&quot;color: rgb(0, 0, 0);&quot;&gt;Гостевая&lt;/font&gt;&lt;div&gt;&lt;font style=&quot;color: rgb(0, 0, 0);&quot;&gt;команда&lt;/font&gt;&lt;/div&gt;" style="ellipse;whiteSpace=wrap;html=1;align=center;" parent="1" vertex="1">
                    <mxGeometry x="282.5" y="576" width="100" height="40" as="geometry"/>
                </mxCell>
                <mxCell id="46" value="ID" style="ellipse;whiteSpace=wrap;html=1;align=center;" parent="1" vertex="1">
                    <mxGeometry x="282.5" y="504" width="100" height="40" as="geometry"/>
                </mxCell>
                <mxCell id="47" style="edgeStyle=orthogonalEdgeStyle;html=1;exitX=1;exitY=0.5;exitDx=0;exitDy=0;entryX=0.5;entryY=1;entryDx=0;entryDy=0;rounded=0;endArrow=none;endFill=0;" parent="1" source="46" target="3" edge="1">
                    <mxGeometry relative="1" as="geometry">
                        <mxPoint x="416.5" y="606" as="sourcePoint"/>
                        <mxPoint x="442.5" y="472" as="targetPoint"/>
                    </mxGeometry>
                </mxCell>
                <mxCell id="48" style="edgeStyle=orthogonalEdgeStyle;html=1;exitX=0;exitY=0.5;exitDx=0;exitDy=0;entryX=0.5;entryY=1;entryDx=0;entryDy=0;rounded=0;endArrow=none;endFill=0;" parent="1" source="43" target="3" edge="1">
                    <mxGeometry relative="1" as="geometry">
                        <mxPoint x="426.5" y="616" as="sourcePoint"/>
                        <mxPoint x="442.5" y="472" as="targetPoint"/>
                    </mxGeometry>
                </mxCell>
                <mxCell id="49" style="edgeStyle=orthogonalEdgeStyle;html=1;exitX=0;exitY=0.5;exitDx=0;exitDy=0;entryX=0.5;entryY=1;entryDx=0;entryDy=0;rounded=0;endArrow=none;endFill=0;" parent="1" source="42" target="3" edge="1">
                    <mxGeometry relative="1" as="geometry">
                        <mxPoint x="436.5" y="626" as="sourcePoint"/>
                        <mxPoint x="442.5" y="472" as="targetPoint"/>
                    </mxGeometry>
                </mxCell>
                <mxCell id="50" value="Кол-во голов домашней&amp;nbsp;&lt;div&gt;команды&lt;/div&gt;" style="ellipse;whiteSpace=wrap;html=1;align=center;" parent="1" vertex="1">
                    <mxGeometry x="270" y="643" width="125" height="55" as="geometry"/>
                </mxCell>
                <mxCell id="52" style="edgeStyle=orthogonalEdgeStyle;html=1;exitX=1;exitY=0.5;exitDx=0;exitDy=0;entryX=0.5;entryY=1;entryDx=0;entryDy=0;rounded=0;endArrow=none;endFill=0;strokeWidth=1;" parent="1" source="50" target="3" edge="1">
                    <mxGeometry relative="1" as="geometry">
                        <mxPoint x="469.5" y="672" as="targetPoint"/>
                        <mxPoint x="365.5" y="885" as="sourcePoint"/>
                    </mxGeometry>
                </mxCell>
                <mxCell id="53" value="Кол-во голов&lt;div&gt;гостевой&lt;/div&gt;&lt;div&gt;команды&lt;/div&gt;" style="ellipse;whiteSpace=wrap;html=1;align=center;" parent="1" vertex="1">
                    <mxGeometry x="481" y="644" width="127" height="54" as="geometry"/>
                </mxCell>
                <mxCell id="55" style="edgeStyle=orthogonalEdgeStyle;html=1;exitX=0;exitY=0.5;exitDx=0;exitDy=0;entryX=0.5;entryY=1;entryDx=0;entryDy=0;rounded=0;endArrow=none;endFill=0;" parent="1" source="53" target="3" edge="1">
                    <mxGeometry relative="1" as="geometry">
                        <mxPoint x="444.5" y="445" as="targetPoint"/>
                        <mxPoint x="399.5" y="681" as="sourcePoint"/>
                    </mxGeometry>
                </mxCell>
                <mxCell id="56" value="Сумма" style="ellipse;whiteSpace=wrap;html=1;align=center;" parent="1" vertex="1">
                    <mxGeometry x="842" y="504" width="100" height="40" as="geometry"/>
                </mxCell>
                <mxCell id="57" value="Событие" style="ellipse;whiteSpace=wrap;html=1;align=center;" parent="1" vertex="1">
                    <mxGeometry x="729" y="637" width="100" height="40" as="geometry"/>
                </mxCell>
                <mxCell id="59" style="edgeStyle=orthogonalEdgeStyle;html=1;exitX=0.5;exitY=0;exitDx=0;exitDy=0;entryX=0.5;entryY=1;entryDx=0;entryDy=0;rounded=0;endArrow=none;endFill=0;" parent="1" source="57" target="4" edge="1">
                    <mxGeometry relative="1" as="geometry">
                        <mxPoint x="852" y="567" as="sourcePoint"/>
                        <mxPoint x="789" y="445" as="targetPoint"/>
                    </mxGeometry>
                </mxCell>
                <mxCell id="62" value="" style="fontSize=12;html=1;endArrow=ERoneToMany;exitX=0;exitY=0.5;exitDx=0;exitDy=0;entryX=1;entryY=0.5;entryDx=0;entryDy=0;rounded=0;" parent="1" source="4" target="3" edge="1">
                    <mxGeometry width="100" height="100" relative="1" as="geometry">
                        <mxPoint x="445" y="385" as="sourcePoint"/>
                        <mxPoint x="443" y="265" as="targetPoint"/>
                    </mxGeometry>
                </mxCell>
                <mxCell id="64" value="Имеет" style="shape=rhombus;perimeter=rhombusPerimeter;whiteSpace=wrap;html=1;align=center;" parent="1" vertex="1">
                    <mxGeometry x="549" y="375" width="120" height="60" as="geometry"/>
                </mxCell>
                <mxCell id="65" value="Тур" style="rounded=0;whiteSpace=wrap;html=1;" parent="1" vertex="1">
                    <mxGeometry x="-189" y="195" width="120" height="60" as="geometry"/>
                </mxCell>
                <mxCell id="66" value="" style="fontSize=12;html=1;endArrow=ERoneToMany;exitX=1;exitY=0.5;exitDx=0;exitDy=0;entryX=0;entryY=0.5;entryDx=0;entryDy=0;rounded=0;" parent="1" source="65" target="6" edge="1">
                    <mxGeometry width="100" height="100" relative="1" as="geometry">
                        <mxPoint x="210" y="385" as="sourcePoint"/>
                        <mxPoint x="208" y="265" as="targetPoint"/>
                    </mxGeometry>
                </mxCell>
                <mxCell id="67" value="ID" style="ellipse;whiteSpace=wrap;html=1;align=center;" parent="1" vertex="1">
                    <mxGeometry x="-270" y="308" width="100" height="40" as="geometry"/>
                </mxCell>
                <mxCell id="68" value="&lt;font style=&quot;color: rgb(0, 0, 0);&quot;&gt;Домашняя&lt;/font&gt;&lt;div&gt;&lt;font style=&quot;color: rgb(0, 0, 0);&quot;&gt;команда&lt;/font&gt;&lt;/div&gt;" style="ellipse;whiteSpace=wrap;html=1;align=center;" parent="1" vertex="1">
                    <mxGeometry x="-85" y="308" width="100" height="40" as="geometry"/>
                </mxCell>
                <mxCell id="69" value="&lt;font style=&quot;color: rgb(0, 0, 0);&quot;&gt;Гостевая&lt;/font&gt;&lt;div&gt;&lt;font style=&quot;color: rgb(0, 0, 0);&quot;&gt;команда&lt;/font&gt;&lt;/div&gt;" style="ellipse;whiteSpace=wrap;html=1;align=center;" parent="1" vertex="1">
                    <mxGeometry x="-179" y="367" width="100" height="40" as="geometry"/>
                </mxCell>
                <mxCell id="70" style="edgeStyle=orthogonalEdgeStyle;html=1;rounded=0;endArrow=none;endFill=0;entryX=0.5;entryY=1;entryDx=0;entryDy=0;exitX=0;exitY=0.5;exitDx=0;exitDy=0;" parent="1" source="68" target="65" edge="1">
                    <mxGeometry relative="1" as="geometry">
                        <mxPoint x="-132" y="265" as="targetPoint"/>
                        <mxPoint x="-59" y="391" as="sourcePoint"/>
                    </mxGeometry>
                </mxCell>
                <mxCell id="71" style="edgeStyle=orthogonalEdgeStyle;html=1;rounded=0;endArrow=none;endFill=0;entryX=0.5;entryY=1;entryDx=0;entryDy=0;exitX=1;exitY=0.5;exitDx=0;exitDy=0;" parent="1" source="67" target="65" edge="1">
                    <mxGeometry relative="1" as="geometry">
                        <mxPoint x="-119" y="265" as="targetPoint"/>
                        <mxPoint x="-75" y="338" as="sourcePoint"/>
                    </mxGeometry>
                </mxCell>
                <mxCell id="74" style="edgeStyle=orthogonalEdgeStyle;html=1;rounded=0;endArrow=none;endFill=0;entryX=0.5;entryY=1;entryDx=0;entryDy=0;exitX=0.5;exitY=0;exitDx=0;exitDy=0;" parent="1" source="69" target="65" edge="1">
                    <mxGeometry relative="1" as="geometry">
                        <mxPoint x="-119" y="265" as="targetPoint"/>
                        <mxPoint x="-172" y="338" as="sourcePoint"/>
                    </mxGeometry>
                </mxCell>
                <mxCell id="75" value="Участвует" style="shape=rhombus;perimeter=rhombusPerimeter;whiteSpace=wrap;html=1;align=center;" parent="1" vertex="1">
                    <mxGeometry x="-25" y="195" width="120" height="60" as="geometry"/>
                </mxCell>
                <mxCell id="76" value="ID" style="ellipse;whiteSpace=wrap;html=1;align=center;" vertex="1" parent="1">
                    <mxGeometry x="60" y="308" width="100" height="40" as="geometry"/>
                </mxCell>
                <mxCell id="77" value="Имя" style="ellipse;whiteSpace=wrap;html=1;align=center;" vertex="1" parent="1">
                    <mxGeometry x="230" y="308" width="100" height="40" as="geometry"/>
                </mxCell>
                <mxCell id="79" style="edgeStyle=orthogonalEdgeStyle;html=1;exitX=1;exitY=0.5;exitDx=0;exitDy=0;entryX=0.5;entryY=1;entryDx=0;entryDy=0;rounded=0;endArrow=none;endFill=0;" edge="1" parent="1" source="76" target="6">
                    <mxGeometry relative="1" as="geometry">
                        <mxPoint x="393" y="534" as="sourcePoint"/>
                        <mxPoint x="445" y="445" as="targetPoint"/>
                    </mxGeometry>
                </mxCell>
                <mxCell id="80" style="edgeStyle=orthogonalEdgeStyle;html=1;exitX=0;exitY=0.5;exitDx=0;exitDy=0;entryX=0.5;entryY=1;entryDx=0;entryDy=0;rounded=0;endArrow=none;endFill=0;" edge="1" parent="1" source="77" target="6">
                    <mxGeometry relative="1" as="geometry">
                        <mxPoint x="403" y="544" as="sourcePoint"/>
                        <mxPoint x="455" y="455" as="targetPoint"/>
                    </mxGeometry>
                </mxCell>
            </root>
        </mxGraphModel>
    </diagram>
</mxfile>